<!DOCTYPE svg PUBLIC "-//W3C//DTD SVG 20010904//EN" "http://www.w3.org/TR/2001/REC-SVG-20010904/DTD/svg10.dtd">
<svg version="1.0" xmlns="http://www.w3.org/2000/svg" width="20px" height="20px" margin="10px" viewBox="0 0 12000 12000" preserveAspectRatio="xMidYMid meet">
<g id="layer101" fill="#ffffff" stroke="none">
 <path d="M4970 11889 c-25 -5 -92 -19 -150 -30 -933 -178 -1871 -627 -2631 -1258 -835 -692 -1456 -1581 -1822 -2606 -151 -420 -246 -841 -309 -1355 -20 -167 -22 -230 -22 -640 0 -499 8 -608 74 -1000 140 -826 436 -1579 897 -2280 232 -352 427 -592 733 -903 323 -329 607 -564 980 -810 701 -461 1454 -757 2280 -897 392 -66 501 -74 1000 -74 491 0 593 7 976 69 893 145 1757 502 2499 1034 1505 1078 2425 2781 2495 4621 44 1170 -230 2266 -817 3268 -805 1375 -2152 2384 -3698 2771 -133 33 -391 86 -472 97 l-53 7 0 -2087 0 -2086 697 -2 698 -3 16 -115 c21 -144 106 -694 119 -775 6 -33 26 -166 45 -295 31 -204 65 -421 80 -512 l5 -28 -830 0 -830 0 0 -582 c0 -321 5 -626 10 -678 30 -282 151 -503 350 -635 84 -56 162 -90 280 -123 l95 -26 498 -4 497 -3 0 -734 0 -733 -67 -12 c-229 -40 -658 -82 -1023 -101 -560 -28 -1011 51 -1395 246 -202 102 -348 209 -499 364 -110 113 -130 137 -210 253 -190 275 -309 605 -369 1018 -19 135 -21 198 -24 948 l-4 802 -760 0 -759 0 0 865 0 865 760 0 760 0 0 2085 0 2085 -27 -1 c-16 -1 -48 -5 -73 -10z"/>
 </g>

</svg>